<svg width="1358" height="392" viewBox="0 0 1358 392" fill="none" xmlns="http://www.w3.org/2000/svg">
<g filter="url(#filter0_f_1_2718)">
<path d="M240.438 240H201.188L178.375 183.438L173.125 171.375H170.688L174.938 183.438V240H150.625V150.375H189.875L212.688 207L217.938 219H220.375L216.125 207V150.375H240.438V240ZM283.938 240H259.625V150.375H334.375V169.875H283.938V190.438H325.375V208.875H283.938V240ZM370 170.875H340.188V150.375H424.125V170.875H394.312V240H370V170.875ZM513.312 202.875H515.375L516.375 191L528.812 150.375H567.438V240H543.125V183.562L546.625 171.375H544.188L539.938 183.562L528.562 219.75H500.125L488.75 183.562L484.5 171.375H482.062L485.562 183.562V240H461.25V150.375H499.875L512.312 191L513.312 202.875ZM612.312 150.375H643.312L679.125 240H653.688L648.188 226.312H607.438L601.938 240H576.5L612.312 150.375ZM614.25 207.875H641.375L628.562 174.062H627.062L614.25 207.875ZM727.375 218.25H712.438V240H688.125V150.375H727.375C741.125 150.375 751.229 153.188 757.688 158.812C764.188 164.438 767.438 172.938 767.438 184.312C767.438 195.688 764.188 204.188 757.688 209.812C751.229 215.438 741.125 218.25 727.375 218.25ZM712.438 198H727.375C737.042 198 741.875 193.438 741.875 184.312C741.875 175.188 737.042 170.625 727.375 170.625H712.438V198ZM839.812 150.375H867.938L834.188 194.562L869.625 240H841.438L807.812 196.25V240H783.5V150.375H807.812V193L839.812 150.375ZM955.125 240H878.625V150.375H955.125V169.875H902.938V184.938H946.438V203.375H902.938V220.562H955.125V240ZM967.875 221.688C967.875 214.979 970.521 210.042 975.812 206.875C981.104 203.708 987.938 202.125 996.312 202.125C1000.6 202.125 1004.42 202.5 1007.75 203.25C1011.04 204.042 1013.25 204.854 1014.38 205.688L1016 206.875V198C1016 192.708 1012.33 190.062 1005 190.062C1001.46 190.062 998.729 190.708 996.812 192C994.938 193.292 994 195.042 994 197.25H971.188C971.188 189.833 974.208 184.229 980.25 180.438C986.208 176.646 994.542 174.75 1005.25 174.75C1027.25 174.75 1038.27 182.5 1038.31 198V216.188C1038.31 218.396 1038.58 219.938 1039.12 220.812C1039.67 221.646 1040.58 222.062 1041.88 222.062L1044.19 221.688V240C1042.44 240.833 1039.4 241.25 1035.06 241.25C1032.69 241.25 1030.44 240.938 1028.31 240.312C1026.23 239.688 1024.58 238.896 1023.38 237.938C1021.08 236.062 1019.52 234.271 1018.69 232.562L1018.31 231.688H1017.31C1017.4 231.812 1017.23 232.188 1016.81 232.812C1016.44 233.438 1015.67 234.25 1014.5 235.25C1013.38 236.25 1012.06 237.167 1010.56 238C1006.77 240.167 1001.21 241.25 993.875 241.25C986.375 241.25 980.167 239.604 975.25 236.312C970.333 233.062 967.875 228.188 967.875 221.688ZM1003.12 225.938C1011.38 225.938 1015.5 224.188 1015.5 220.688C1015.5 217.188 1011.38 215.438 1003.12 215.438C994.833 215.438 990.688 217.188 990.688 220.688C990.688 224.188 994.833 225.938 1003.12 225.938ZM1118.81 196.125H1096C1096 195.042 1095.94 194.25 1095.81 193.75C1095.69 193.208 1095.35 192.604 1094.81 191.938C1093.69 190.521 1090.75 189.812 1086 189.812C1079.62 189.812 1076.48 191.354 1076.56 194.438C1076.56 197.188 1080.5 198.708 1088.38 199C1091.88 199.125 1095.52 199.521 1099.31 200.188C1103.35 200.896 1107 201.792 1110.25 202.875C1113.58 204 1116.42 206.062 1118.75 209.062C1121 212.104 1122.12 215.896 1122.12 220.438C1122.12 234.354 1110.48 241.292 1087.19 241.25C1075.52 241.25 1066.81 239.542 1061.06 236.125C1055.35 232.667 1052.5 227.125 1052.5 219.5V217.5H1075.25V219.5C1075.25 221.875 1076.17 223.583 1078 224.625C1079.88 225.667 1082.94 226.188 1087.19 226.188C1095.35 226.188 1099.4 224.396 1099.31 220.812C1099.31 218.854 1097.77 217.458 1094.69 216.625C1091.69 215.833 1087.9 215.25 1083.31 214.875C1078.77 214.542 1074.29 213.917 1069.88 213C1065.42 212.125 1061.6 210.146 1058.44 207.062C1055.31 204.021 1053.75 199.812 1053.75 194.438C1053.75 188.104 1056.54 183.25 1062.12 179.875C1067.75 176.458 1075.75 174.75 1086.12 174.75C1107.92 174.75 1118.81 181.875 1118.81 196.125ZM1140.88 232.5C1135.21 226.708 1132.38 218.542 1132.38 208C1132.38 197.5 1135.23 189.333 1140.94 183.5C1146.65 177.667 1153.73 174.75 1162.19 174.75C1168.19 174.75 1173.06 175.688 1176.81 177.562C1179.56 178.938 1181.77 180.458 1183.44 182.125L1184.25 183.062H1185.12V150.375H1207.38V240H1185.12V229H1184.12C1183.58 230.167 1182.58 231.583 1181.12 233.25C1179.96 234.583 1178.58 235.812 1177 236.938C1175.33 238.104 1173.17 239.125 1170.5 240C1167.83 240.833 1165.06 241.25 1162.19 241.25C1153.69 241.25 1146.58 238.333 1140.88 232.5ZM1159.25 198C1156.54 200.583 1155.19 203.917 1155.19 208C1155.19 212.042 1156.54 215.354 1159.25 217.938C1161.96 220.521 1165.58 221.812 1170.12 221.812C1174.79 221.812 1178.48 220.521 1181.19 217.938C1183.81 215.396 1185.12 212.083 1185.12 208C1185.12 203.75 1183.77 200.396 1181.06 197.938C1178.4 195.438 1174.77 194.188 1170.19 194.188C1165.56 194.188 1161.92 195.458 1159.25 198Z" fill="url(#paint0_linear_1_2718)"/>
</g>
<defs>
<filter id="filter0_f_1_2718" x="0.625" y="0.375" width="1356.75" height="390.938" filterUnits="userSpaceOnUse" color-interpolation-filters="sRGB">
<feFlood flood-opacity="0" result="BackgroundImageFix"/>
<feBlend mode="normal" in="SourceGraphic" in2="BackgroundImageFix" result="shape"/>
<feGaussianBlur stdDeviation="75" result="effect1_foregroundBlur_1_2718"/>
</filter>
<linearGradient id="paint0_linear_1_2718" x1="39.8236" y1="94.4655" x2="615.625" y2="764.273" gradientUnits="userSpaceOnUse">
<stop stop-color="#9DFE00"/>
<stop offset="1" stop-color="#14D9E6"/>
</linearGradient>
</defs>
</svg>
